custom-analysis
version=1
nRows=6
nColumns=98
inDegrees=no

This file contains tibia displacement and acting force.

Units are S.I. units (seconds, meters, Newtons, ...)
Angles are in degrees.

endheader
time	APT	SIT	knee_angle	aACL_R_force	pACL_R_force	aPCL_R_force	pPCL_R_force	aMCL_R_force	mMCL_R_force	pMCL_R_force	aLCL_R_force	mLCL_R_force	pLCL_R_force	aPCL_L_force	pPCL_L_force	aMCL_L_force	aLCL_L_force	aACL_R_length	pACL_R_length	aPCL_R_length	pPCL_R_length	aMCL_R_length	mMCL_R_length	pMCL_R_length	aLCL_R_length	mLCL_R_length	pLCL_R_length	aPCL_L_length	pPCL_L_length	aMCL_L_length	aLCL_L_length	aACL_R_strain	pACL_R_strain	aPCL_R_strain	pPCL_R_strain	aMCL_R_strain	mMCL_R_strain	pMCL_R_strain	aLCL_R_strain	mLCL_R_strain	pLCL_R_strain	aPCL_L_strain	pPCL_L_strain	aMCL_L_strain	aLCL_L_strain	femur_lat_meniscii_r.femur_lat_r.force.X	femur_lat_meniscii_r.femur_lat_r.force.Y	femur_lat_meniscii_r.femur_lat_r.force.Z	femur_lat_meniscii_r.femur_lat_r.torque.X	femur_lat_meniscii_r.femur_lat_r.torque.Y	femur_lat_meniscii_r.femur_lat_r.torque.Z	femur_lat_meniscii_r.meniscus_lat_r.force.X	femur_lat_meniscii_r.meniscus_lat_r.force.Y	femur_lat_meniscii_r.meniscus_lat_r.force.Z	femur_lat_meniscii_r.meniscus_lat_r.torque.X	femur_lat_meniscii_r.meniscus_lat_r.torque.Y	femur_lat_meniscii_r.meniscus_lat_r.torque.Z	femur_med_meniscii_r.femur_med_r.force.X	femur_med_meniscii_r.femur_med_r.force.Y	femur_med_meniscii_r.femur_med_r.force.Z	femur_med_meniscii_r.femur_med_r.torque.X	femur_med_meniscii_r.femur_med_r.torque.Y	femur_med_meniscii_r.femur_med_r.torque.Z	femur_med_meniscii_r.meniscus_med_r.force.X	femur_med_meniscii_r.meniscus_med_r.force.Y	femur_med_meniscii_r.meniscus_med_r.force.Z	femur_med_meniscii_r.meniscus_med_r.torque.X	femur_med_meniscii_r.meniscus_med_r.torque.Y	femur_med_meniscii_r.meniscus_med_r.torque.Z	femur_med_tibia_r.tibia_upper_r.force.X	femur_med_tibia_r.tibia_upper_r.force.Y	femur_med_tibia_r.tibia_upper_r.force.Z	femur_med_tibia_r.tibia_upper_r.torque.X	femur_med_tibia_r.tibia_upper_r.torque.Y	femur_med_tibia_r.tibia_upper_r.torque.Z	femur_med_tibia_r.femur_med_r.force.X	femur_med_tibia_r.femur_med_r.force.Y	femur_med_tibia_r.femur_med_r.force.Z	femur_med_tibia_r.femur_med_r.torque.X	femur_med_tibia_r.femur_med_r.torque.Y	femur_med_tibia_r.femur_med_r.torque.Z	femur_lat_tibia_r.tibia_upper_r.force.X	femur_lat_tibia_r.tibia_upper_r.force.Y	femur_lat_tibia_r.tibia_upper_r.force.Z	femur_lat_tibia_r.tibia_upper_r.torque.X	femur_lat_tibia_r.tibia_upper_r.torque.Y	femur_lat_tibia_r.tibia_upper_r.torque.Z	femur_lat_tibia_r.femur_lat_r.force.X	femur_lat_tibia_r.femur_lat_r.force.Y	femur_lat_tibia_r.femur_lat_r.force.Z	femur_lat_tibia_r.femur_lat_r.torque.X	femur_lat_tibia_r.femur_lat_r.torque.Y	femur_lat_tibia_r.femur_lat_r.torque.Z	femur_lat_meniscii_force_r	femur_med_meniscii_force_r	femur_lat_tibia_force_r	femur_med_tibia_force_r
      0.17994843	      0.01471286	      0.01916793	     61.93779775	      5.08571222	      0.00000000	    543.69752752	    304.30402206	      0.00000000	      0.00000000	      0.00000000	      0.00000000	      0.00000000	      0.00000000	      0.00000000	      0.00000000	      0.00000001	      0.00000000	      0.03208991	      0.02466261	      0.03474706	      0.03195835	      0.05977737	      0.05900629	      0.05583087	      0.05224996	      0.04730987	      0.04221441	      0.01525851	      0.01651186	      0.06550154	      0.04489616	      0.03497492	     -0.01580642	      0.11743763	      0.06927751	     -0.00415864	     -0.01316555	     -0.04933135	     -0.06658497	     -0.15996011	     -0.19349949	      0.00000079	     -0.32847694	      0.00000060	     -0.00000086	     97.37795379	    218.59540169	     15.56257143	    -11.35828561	      2.29619770	     37.54595060	    -97.37795379	   -218.59540169	    -15.56257143	      5.68656427	     -2.82290470	      5.34132854	    115.64780276	     49.61366579	     -6.04854586	      3.48138123	     -2.55525156	     46.22078030	   -115.64780276	    -49.61366579	      6.04854586	     -1.04268733	      2.49269017	     -0.10627648	   -572.42964341	   -685.18180178	    165.55693222	    -14.76437260	     14.74721009	      9.02577992	    572.42964341	    685.18180178	   -165.55693222	     80.34321639	    -11.94454906	    229.31885461	      0.00000000	      0.00000000	      0.00000000	      0.00000000	      0.00000000	      0.00000000	      0.00000000	      0.00000000	      0.00000000	      0.00000000	      0.00000000	      0.00000000	    239.80952682	    125.98616997	      0.00000000	    908.05225397
      0.18017369	      0.01472236	      0.01920821	     62.05263018	      5.12497115	      0.00000000	    546.13331837	    305.48721251	      0.00000000	      0.00000000	      0.00000000	      0.00000000	      0.00000000	      0.00000000	      0.00000000	      0.00000000	      0.00000001	      0.00000000	      0.03208758	      0.02466231	      0.03476119	      0.03196650	      0.05978799	      0.05900807	      0.05582739	      0.05224518	      0.04730042	      0.04220319	      0.01525851	      0.01651186	      0.06550154	      0.04489616	      0.03489968	     -0.01581860	      0.11789224	      0.06954999	     -0.00398169	     -0.01313563	     -0.04939057	     -0.06667027	     -0.16012787	     -0.19371395	      0.00000079	     -0.32847694	      0.00000060	     -0.00000086	     97.14931279	    218.18379407	     15.51506321	    -11.32906971	      2.28852872	     37.44641632	    -97.14931279	   -218.18379407	    -15.51506321	      5.67557802	     -2.81470829	      5.35306685	    116.64811954	     49.72089728	     -6.03200153	      3.47715817	     -2.57858250	     46.62445280	   -116.64811954	    -49.72089728	      6.03200153	     -1.04425890	      2.51354376	     -0.11263767	   -575.18376362	   -685.01997216	    165.69818487	    -14.74954620	     14.80169143	      9.03177987	    575.18376362	    685.01997216	   -165.69818487	     80.39226448	    -11.99794018	    230.42317487	      0.00000000	      0.00000000	      0.00000000	      0.00000000	      0.00000000	      0.00000000	      0.00000000	      0.00000000	      0.00000000	      0.00000000	      0.00000000	      0.00000000	    239.33840928	    126.94619515	      0.00000000	    909.69479093
      0.18041091	      0.01473231	      0.01925062	     62.17355197	      5.15799220	      0.00000000	    548.69444750	    306.74387122	      0.00000000	      0.00000000	      0.00000000	      0.00000000	      0.00000000	      0.00000000	      0.00000000	      0.00000000	      0.00000001	      0.00000000	      0.03208517	      0.02466204	      0.03477604	      0.03197505	      0.05979920	      0.05901000	      0.05582381	      0.05224010	      0.04729044	      0.04219136	      0.01525851	      0.01651186	      0.06550154	      0.04489616	      0.03482194	     -0.01582918	      0.11836957	      0.06983633	     -0.00379500	     -0.01310335	     -0.04945160	     -0.06676115	     -0.16030517	     -0.19393998	      0.00000079	     -0.32847694	      0.00000060	     -0.00000086	     98.50168304	    217.84454760	     15.67618908	    -11.39187033	      2.32528247	     38.00624090	    -98.50168304	   -217.84454760	    -15.67618908	      5.67561059	     -2.85855251	      5.32260483	    117.59082743	     49.89220937	     -6.27134495	      3.57705488	     -2.59854957	     46.99923441	   -117.59082743	    -49.89220937	      6.27134495	     -1.05027702	      2.53698978	     -0.11064049	   -578.10981292	   -684.47214389	    165.71603710	    -14.72691185	     14.85308684	      9.02549907	    578.10981292	    684.47214389	   -165.71603710	     80.38536953	    -12.05129358	    231.60026547	      0.00000000	      0.00000000	      0.00000000	      0.00000000	      0.00000000	      0.00000000	      0.00000000	      0.00000000	      0.00000000	      0.00000000	      0.00000000	      0.00000000	    239.59251112	    127.89122339	      0.00000000	    911.13932881
      0.18063923	      0.01474183	      0.01929144	     62.28993663	      5.19049549	      0.00000000	    551.16894677	    307.99342263	      0.00000000	      0.00000000	      0.00000000	      0.00000000	      0.00000000	      0.00000000	      0.00000000	      0.00000000	      0.00000001	      0.00000000	      0.03208289	      0.02466184	      0.03479029	      0.03198328	      0.05981001	      0.05901191	      0.05582044	      0.05223515	      0.04728080	      0.04217997	      0.01525851	      0.01651186	      0.06550154	      0.04489616	      0.03474849	     -0.01583716	      0.11882797	      0.07011170	     -0.00361490	     -0.01307145	     -0.04950897	     -0.06684956	     -0.16047637	     -0.19415764	      0.00000079	     -0.32847694	      0.00000060	     -0.00000086	     98.17455764	    217.24242484	     15.73056089	    -11.40073330	      2.31648912	     37.86875221	    -98.17455764	   -217.24242484	    -15.73056089	      5.66274528	     -2.85142826	      5.32970189	    118.39235159	     49.77523624	     -6.47532919	      3.65768938	     -2.61681898	     47.32106785	   -118.39235159	    -49.77523624	      6.47532919	     -1.05129055	      2.55818704	     -0.11740320	   -580.31148963	   -684.37755518	    165.81594251	    -14.71177839	     14.89596316	      9.04827147	    580.31148963	    684.37755518	   -165.81594251	     80.41836419	    -12.09312894	    232.47544998	      0.00000000	      0.00000000	      0.00000000	      0.00000000	      0.00000000	      0.00000000	      0.00000000	      0.00000000	      0.00000000	      0.00000000	      0.00000000	      0.00000000	    238.91413827	    128.59336276	      0.00000000	    912.48506279
      0.18087118	      0.01475142	      0.01933291	     62.40816478	      5.19950484	      0.00000000	    553.65297593	    309.20399114	      0.00000000	      0.00000000	      0.00000000	      0.00000000	      0.00000000	      0.00000000	      0.00000000	      0.00000000	      0.00000001	      0.00000000	      0.03208062	      0.02466169	      0.03480473	      0.03199163	      0.05982101	      0.05901389	      0.05581709	      0.05223006	      0.04727096	      0.04216838	      0.01525851	      0.01651186	      0.06550154	      0.04489616	      0.03467505	     -0.01584326	      0.11929244	      0.07039107	     -0.00343166	     -0.01303835	     -0.04956600	     -0.06694045	     -0.16065098	     -0.19437900	      0.00000079	     -0.32847694	      0.00000060	     -0.00000086	     98.08939521	    216.31397337	     15.88522655	    -11.44375782	      2.31458840	     37.83518414	    -98.08939521	   -216.31397337	    -15.88522655	      5.64445213	     -2.85395651	      5.31958258	    118.29791111	     49.41356403	     -6.59842208	      3.69699469	     -2.60761801	     47.27861703	   -118.29791111	    -49.41356403	      6.59842208	     -1.04285249	      2.55161897	     -0.11395216	   -582.66370513	   -683.99159978	    166.03452598	    -14.69609124	     14.94416230	      9.05939679	    582.66370513	    683.99159978	   -166.03452598	     80.49666448	    -12.13782237	    233.41498318	      0.00000000	      0.00000000	      0.00000000	      0.00000000	      0.00000000	      0.00000000	      0.00000000	      0.00000000	      0.00000000	      0.00000000	      0.00000000	      0.00000000	    238.04538423	    128.37303166	      0.00000000	    913.73353099
      0.18109757	      0.01476070	      0.01937340	     62.52354652	      5.20928456	      0.00000000	    556.08346588	    310.41893623	      0.00000000	      0.00000000	      0.00000000	      0.00000000	      0.00000000	      0.00000000	      0.00000000	      0.00000000	      0.00000001	      0.00000000	      0.03207842	      0.02466158	      0.03481879	      0.03199977	      0.05983175	      0.05901585	      0.05581388	      0.05222503	      0.04726132	      0.04215705	      0.01525851	      0.01651186	      0.06550154	      0.04489616	      0.03460418	     -0.01584759	      0.11974446	      0.07066324	     -0.00325275	     -0.01300552	     -0.04962059	     -0.06703038	     -0.16082224	     -0.19459545	      0.00000079	     -0.32847694	      0.00000060	     -0.00000086	     99.51328664	    216.30839974	     16.16543458	    -11.56139542	      2.35603087	     38.42199813	    -99.51328664	   -216.30839974	    -16.16543458	      5.65353070	     -2.90538247	      5.29723492	    119.19255237	     49.51142266	     -6.67562347	      3.72807173	     -2.62456107	     47.63497645	   -119.19255237	    -49.51142266	      6.67562347	     -1.04323418	      2.56839985	     -0.11401901	   -584.71143631	   -683.78723033	    166.26449607	    -14.68206997	     14.99044604	      9.08285711	    584.71143631	    683.78723033	   -166.26449607	     80.58120710	    -12.17990869	    234.22698730	      0.00000000	      0.00000000	      0.00000000	      0.00000000	      0.00000000	      0.00000000	      0.00000000	      0.00000000	      0.00000000	      0.00000000	      0.00000000	      0.00000000	    238.64940664	    129.23934951	      0.00000000	    914.92968186
